<?xml version="1.0" standalone="no"?>
<!DOCTYPE svg PUBLIC "-//W3C//DTD SVG 20010904//EN"
 "http://www.w3.org/TR/2001/REC-SVG-20010904/DTD/svg10.dtd">
<svg version="1.0"
        xmlns="http://www.w3.org/2000/svg" width="220.000000pt" height="50.000000pt" viewBox="0 0 320.000000 104.000000" preserveAspectRatio="xMidYMid meet">

        <g transform="translate(0.000000,104.000000) scale(0.100000,-0.100000)" fill="#000000" stroke="none">
                <path d="M2692 972 c-9 -25 -7 -27 18 -27 17 0 26 4 23 12 -3 6 -11 9 -19 6
-8 -3 -14 -1 -14 5 0 6 5 12 12 14 9 3 9 6 1 11 -6 4 -15 -4 -21 -21z"/>
                <path d="M2786 985 c-3 -9 -6 -24 -5 -33 0 -9 5 -4 10 12 9 32 6 48 -5 21z"/>
                <path d="M2626 953 c4 -26 2 -33 -11 -33 -8 0 -20 10 -25 23 -8 17 -9 18 -7 3
3 -26 33 -44 48 -29 8 8 8 19 0 40 l-11 28 6 -32z"/>
                <path d="M2872 955 c-17 -37 -14 -45 4 -12 9 16 14 31 11 33 -2 2 -9 -7 -15
-21z"/>
                <path d="M2942 943 c1 -5 -4 -19 -11 -33 l-14 -25 25 25 c24 24 27 40 7 40 -5
0 -8 -3 -7 -7z"/>
                <path d="M2496 912 c-3 -5 5 -8 17 -8 17 1 22 -5 21 -21 -1 -24 20 -31 32 -11
4 6 3 8 -4 4 -6 -4 -12 3 -14 16 -3 23 -41 38 -52 20z"/>
                <path d="M3001 874 c-6 -15 -9 -29 -7 -32 3 -2 10 8 16 23 14 36 7 43 -9 9z"/>
                <path d="M3084 748 l-19 -23 25 20 c14 11 27 21 29 22 2 2 0 3 -6 3 -5 0 -18
-10 -29 -22z"/>
                <path d="M3094 708 l-19 -21 28 18 c28 18 33 25 19 25 -5 0 -17 -10 -28 -22z"/>
                <path d="M3091 608 c0 -22 1 -22 8 -3 l8 20 5 -20 c5 -16 6 -17 7 -2 0 9 5 17
10 17 5 0 12 -8 14 -17 4 -14 5 -12 6 5 1 18 -4 22 -29 22 -25 0 -30 -4 -29
-22z"/>
                <path d="M3090 544 c0 -11 40 -47 46 -41 2 2 -7 14 -21 27 -14 13 -25 19 -25
14z"/>
                <path d="M2320 497 c28 -15 62 -11 38 4 -7 5 -24 9 -38 9 l-25 0 25 -13z"/>
                <path d="M3080 500 c-9 -6 -10 -10 -3 -10 6 0 15 5 18 10 8 12 4 12 -15 0z"/>
                <path d="M1887 493 c-9 -2 -15 -8 -13 -12 3 -4 -11 -50 -29 -102 -19 -52 -35
-97 -35 -101 0 -5 9 -8 20 -8 19 0 45 32 34 43 -3 3 8 45 25 93 17 47 31 88
31 90 0 4 -7 4 -33 -3z"/>
                <path d="M2241 476 c-21 -22 -81 -166 -81 -193 0 -23 29 -14 36 11 5 21 94
119 94 103 0 -3 -9 -29 -20 -57 -11 -28 -20 -55 -20 -60 0 -19 39 -10 51 11 8
15 8 19 0 15 -14 -9 -14 -10 9 52 18 47 18 53 4 59 -10 4 -31 -9 -59 -37 l-43
-43 24 69 c14 38 30 74 36 81 19 23 -8 14 -31 -11z"/>
                <path d="M2421 480 c-13 -11 -19 -20 -14 -20 6 0 18 9 28 20 23 25 17 25 -14
0z"/>
                <path d="M343 473 c15 -4 17 -18 17 -104 0 -54 4 -99 9 -99 5 0 19 9 32 21 13
11 18 18 12 14 -18 -9 -18 146 -1 163 9 9 1 12 -37 11 -28 -1 -42 -3 -32 -6z"/>
                <path d="M456 472 c20 -13 24 -68 6 -93 -15 -23 -15 -23 1 -10 16 12 17 9 17
-43 0 -69 10 -72 55 -16 13 15 14 20 4 12 -14 -11 -17 -8 -23 19 -11 55 -7
107 10 123 14 15 11 16 -33 16 -26 0 -43 -4 -37 -8z"/>
                <path d="M603 473 l38 -4 -17 -27 -17 -27 32 29 c17 17 31 31 31 33 0 2 -24 2
-52 1 -45 -1 -47 -2 -15 -5z"/>
                <path d="M1776 471 c17 -4 36 -11 41 -14 12 -8 43 1 43 12 0 3 -26 7 -57 8
-45 1 -51 0 -27 -6z"/>
                <path d="M1673 428 c-31 -32 -53 -75 -53 -104 0 -22 37 -54 63 -54 13 0 31 6
40 13 16 11 14 12 -15 12 -32 0 -33 1 -36 45 -2 36 3 54 22 83 31 46 20 48
-21 5z"/>
                <path d="M2125 452 c-10 -6 -65 -157 -65 -174 0 -5 15 -7 33 -7 17 1 24 3 15
6 -15 4 -15 10 6 66 14 35 31 64 42 68 17 7 18 8 1 8 -15 1 -16 5 -7 21 8 15
8 20 -2 20 -7 0 -18 -4 -23 -8z"/>
                <path d="M3063 443 c4 -3 2 -12 -4 -19 -6 -7 -8 -18 -4 -24 8 -12 32 -13 39
-1 4 5 -4 7 -15 4 -16 -4 -20 -2 -17 8 3 8 13 13 22 13 13 -2 14 1 5 12 -6 8
-16 14 -22 14 -6 0 -7 -3 -4 -7z"/>
                <path d="M747 409 c8 -8 5 -28 -13 -75 -22 -60 -23 -64 -5 -64 10 0 26 10 37
22 10 12 13 18 7 14 -16 -9 -16 -8 2 45 18 51 14 69 -17 69 -16 0 -19 -3 -11
-11z"/>
                <path d="M834 405 c3 -9 -3 -39 -14 -68 -24 -63 -24 -67 -4 -67 19 0 154 120
154 137 0 7 -11 13 -25 13 -21 0 -24 -4 -20 -22 5 -18 -4 -33 -40 -68 -25 -24
-45 -41 -45 -37 0 3 9 29 20 57 26 65 25 70 -6 70 -19 0 -25 -4 -20 -15z"/>
                <path d="M1066 396 c4 -17 0 -27 -13 -35 -10 -6 -13 -11 -6 -11 7 0 25 11 40
25 24 21 26 26 13 35 -27 18 -41 12 -34 -14z"/>
                <path d="M1190 405 c6 -8 8 -20 4 -27 -4 -7 2 -5 12 5 16 15 17 19 4 27 -23
15 -34 12 -20 -5z"/>
                <path d="M1998 408 c17 -17 15 -80 -4 -107 -16 -22 -16 -23 4 -12 50 27 70
101 33 121 -28 15 -49 14 -33 -2z"/>
                <path d="M2367 409 c8 -8 5 -28 -13 -75 -22 -60 -23 -64 -5 -64 10 0 26 10 37
22 10 12 13 18 7 14 -16 -9 -16 -7 2 44 21 60 19 70 -12 70 -20 0 -24 -3 -16
-11z"/>
                <path d="M2454 405 c3 -9 -4 -40 -15 -71 -12 -30 -18 -58 -15 -61 12 -13 33 8
46 46 7 23 16 39 18 36 3 -3 18 7 34 22 33 32 33 32 8 -42 -11 -32 -20 -60
-20 -62 0 -10 39 -1 50 12 7 9 8 15 2 15 -6 0 -2 22 9 50 10 28 19 55 19 60 0
21 -35 9 -68 -22 l-34 -33 7 33 c6 30 5 32 -20 32 -20 0 -26 -4 -21 -15z"/>
                <path d="M2708 412 c10 -7 8 -21 -9 -69 -18 -49 -26 -59 -41 -56 -26 7 -24 63
4 98 21 27 21 27 1 16 -31 -16 -63 -60 -63 -86 0 -29 24 -48 50 -40 25 8 27
-11 3 -37 -26 -29 1 -21 29 10 15 15 38 57 51 94 25 70 23 78 -21 78 -13 0
-14 -2 -4 -8z"/>
                <path d="M589 393 c-13 -16 -12 -17 4 -4 9 7 17 15 17 17 0 8 -8 3 -21 -13z"/>
                <path d="M675 379 c-42 -37 -50 -93 -15 -104 29 -9 45 4 24 19 -15 11 -15 18
-5 46 6 19 19 42 28 52 26 29 7 21 -32 -13z"/>
                <path d="M1011 394 c-33 -23 -55 -79 -41 -104 11 -21 36 -26 58 -11 10 6 8 10
-8 14 -18 5 -21 11 -17 37 3 17 13 42 21 56 19 28 18 29 -13 8z"/>
                <path d="M1136 394 c-21 -21 -20 -26 10 -55 15 -14 23 -31 21 -41 -4 -15 -2
-16 14 -7 26 14 24 41 -7 68 -14 12 -23 29 -20 37 7 18 1 18 -18 -2z"/>
                <path d="M1929 379 c-47 -50 -35 -110 21 -108 16 1 19 3 8 6 -10 2 -18 10 -19
16 -3 34 4 75 17 95 21 32 7 27 -27 -9z"/>
                <path d="M559 353 c-13 -16 -12 -17 4 -4 9 7 17 15 17 17 0 8 -8 3 -21 -13z"/>
                <path d="M429 333 c-13 -16 -12 -17 4 -4 9 7 17 15 17 17 0 8 -8 3 -21 -13z"/>
                <path d="M1105 314 c-21 -21 -14 -38 16 -42 18 -2 20 0 10 7 -8 5 -12 18 -8
30 6 25 3 26 -18 5z"/>
                <path d="M2565 230 c-8 -12 17 -23 41 -18 14 2 12 6 -9 15 -16 8 -29 9 -32 3z"/>
        </g>
</svg>
